<mxfile host="app.diagrams.net" modified="2021-08-02T16:07:17.060Z" agent="5.0 (Macintosh; Intel Mac OS X 10_15_7) AppleWebKit/537.36 (KHTML, like Gecko) Chrome/92.0.4515.107 Safari/537.36" etag="FPy2Nm8IIlazeWC1LR1D" version="14.9.3" type="github">
  <diagram id="IjIK6wdnnFCG0nz6X3BC" name="Page-1">
    <mxGraphModel dx="2398" dy="752" grid="1" gridSize="10" guides="1" tooltips="1" connect="1" arrows="1" fold="1" page="1" pageScale="1" pageWidth="1100" pageHeight="850" math="0" shadow="0">
      <root>
        <mxCell id="0" />
        <mxCell id="1" parent="0" />
        <mxCell id="djCtfFWqk9Z2EtGRfytW-20" value="Migrator Scala App" style="rounded=1;whiteSpace=wrap;html=1;verticalAlign=top;align=left;dashed=1;" vertex="1" parent="1">
          <mxGeometry x="70" y="190" width="750" height="120" as="geometry" />
        </mxCell>
        <mxCell id="djCtfFWqk9Z2EtGRfytW-14" style="edgeStyle=orthogonalEdgeStyle;rounded=0;orthogonalLoop=1;jettySize=auto;html=1;entryX=0;entryY=0.5;entryDx=0;entryDy=0;" edge="1" parent="1" source="djCtfFWqk9Z2EtGRfytW-1" target="djCtfFWqk9Z2EtGRfytW-7">
          <mxGeometry relative="1" as="geometry" />
        </mxCell>
        <mxCell id="djCtfFWqk9Z2EtGRfytW-1" value="" style="outlineConnect=0;dashed=0;verticalLabelPosition=bottom;verticalAlign=top;align=center;html=1;shape=mxgraph.aws3.mysql_db_instance;fillColor=#2E73B8;gradientColor=none;" vertex="1" parent="1">
          <mxGeometry y="220" width="60" height="64.5" as="geometry" />
        </mxCell>
        <mxCell id="djCtfFWqk9Z2EtGRfytW-11" style="edgeStyle=orthogonalEdgeStyle;rounded=0;orthogonalLoop=1;jettySize=auto;html=1;" edge="1" parent="1" source="djCtfFWqk9Z2EtGRfytW-2" target="djCtfFWqk9Z2EtGRfytW-8">
          <mxGeometry relative="1" as="geometry" />
        </mxCell>
        <mxCell id="djCtfFWqk9Z2EtGRfytW-16" style="edgeStyle=orthogonalEdgeStyle;rounded=0;orthogonalLoop=1;jettySize=auto;html=1;entryX=0;entryY=0.5;entryDx=0;entryDy=0;" edge="1" parent="1" source="djCtfFWqk9Z2EtGRfytW-2" target="djCtfFWqk9Z2EtGRfytW-3">
          <mxGeometry relative="1" as="geometry" />
        </mxCell>
        <mxCell id="djCtfFWqk9Z2EtGRfytW-2" value="Wallet Stage" style="rounded=1;whiteSpace=wrap;html=1;" vertex="1" parent="1">
          <mxGeometry x="240" y="222.25" width="120" height="60" as="geometry" />
        </mxCell>
        <mxCell id="djCtfFWqk9Z2EtGRfytW-12" style="edgeStyle=orthogonalEdgeStyle;rounded=0;orthogonalLoop=1;jettySize=auto;html=1;" edge="1" parent="1" source="djCtfFWqk9Z2EtGRfytW-3" target="djCtfFWqk9Z2EtGRfytW-9">
          <mxGeometry relative="1" as="geometry" />
        </mxCell>
        <mxCell id="djCtfFWqk9Z2EtGRfytW-17" style="edgeStyle=orthogonalEdgeStyle;rounded=0;orthogonalLoop=1;jettySize=auto;html=1;entryX=0;entryY=0.5;entryDx=0;entryDy=0;" edge="1" parent="1" source="djCtfFWqk9Z2EtGRfytW-3" target="djCtfFWqk9Z2EtGRfytW-4">
          <mxGeometry relative="1" as="geometry" />
        </mxCell>
        <mxCell id="djCtfFWqk9Z2EtGRfytW-3" value="ITS Stage" style="rounded=1;whiteSpace=wrap;html=1;" vertex="1" parent="1">
          <mxGeometry x="390" y="222.25" width="120" height="60" as="geometry" />
        </mxCell>
        <mxCell id="djCtfFWqk9Z2EtGRfytW-13" style="edgeStyle=orthogonalEdgeStyle;rounded=0;orthogonalLoop=1;jettySize=auto;html=1;" edge="1" parent="1" source="djCtfFWqk9Z2EtGRfytW-4" target="djCtfFWqk9Z2EtGRfytW-10">
          <mxGeometry relative="1" as="geometry" />
        </mxCell>
        <mxCell id="djCtfFWqk9Z2EtGRfytW-18" style="edgeStyle=orthogonalEdgeStyle;rounded=0;orthogonalLoop=1;jettySize=auto;html=1;entryX=0;entryY=0.5;entryDx=0;entryDy=0;" edge="1" parent="1" source="djCtfFWqk9Z2EtGRfytW-4" target="djCtfFWqk9Z2EtGRfytW-5">
          <mxGeometry relative="1" as="geometry" />
        </mxCell>
        <mxCell id="djCtfFWqk9Z2EtGRfytW-4" value="Tax Stage" style="rounded=1;whiteSpace=wrap;html=1;" vertex="1" parent="1">
          <mxGeometry x="540" y="222.25" width="120" height="60" as="geometry" />
        </mxCell>
        <mxCell id="djCtfFWqk9Z2EtGRfytW-19" style="edgeStyle=orthogonalEdgeStyle;rounded=0;orthogonalLoop=1;jettySize=auto;html=1;entryX=0;entryY=0.5;entryDx=0;entryDy=0;entryPerimeter=0;" edge="1" parent="1" source="djCtfFWqk9Z2EtGRfytW-5" target="djCtfFWqk9Z2EtGRfytW-6">
          <mxGeometry relative="1" as="geometry" />
        </mxCell>
        <mxCell id="djCtfFWqk9Z2EtGRfytW-5" value="Destination DB Stage" style="rounded=1;whiteSpace=wrap;html=1;" vertex="1" parent="1">
          <mxGeometry x="690" y="222.25" width="120" height="60" as="geometry" />
        </mxCell>
        <mxCell id="djCtfFWqk9Z2EtGRfytW-6" value="" style="points=[[0,0,0],[0.25,0,0],[0.5,0,0],[0.75,0,0],[1,0,0],[0,1,0],[0.25,1,0],[0.5,1,0],[0.75,1,0],[1,1,0],[0,0.25,0],[0,0.5,0],[0,0.75,0],[1,0.25,0],[1,0.5,0],[1,0.75,0]];outlineConnect=0;fontColor=#232F3E;gradientColor=#4D72F3;gradientDirection=north;fillColor=#3334B9;strokeColor=#ffffff;dashed=0;verticalLabelPosition=bottom;verticalAlign=top;align=center;html=1;fontSize=12;fontStyle=0;aspect=fixed;shape=mxgraph.aws4.resourceIcon;resIcon=mxgraph.aws4.dynamodb;" vertex="1" parent="1">
          <mxGeometry x="840" y="213.25" width="78" height="78" as="geometry" />
        </mxCell>
        <mxCell id="djCtfFWqk9Z2EtGRfytW-15" style="edgeStyle=orthogonalEdgeStyle;rounded=0;orthogonalLoop=1;jettySize=auto;html=1;entryX=0;entryY=0.5;entryDx=0;entryDy=0;" edge="1" parent="1" source="djCtfFWqk9Z2EtGRfytW-7" target="djCtfFWqk9Z2EtGRfytW-2">
          <mxGeometry relative="1" as="geometry" />
        </mxCell>
        <mxCell id="djCtfFWqk9Z2EtGRfytW-7" value="DOTS Stage" style="rounded=1;whiteSpace=wrap;html=1;" vertex="1" parent="1">
          <mxGeometry x="90" y="222.25" width="120" height="60" as="geometry" />
        </mxCell>
        <mxCell id="djCtfFWqk9Z2EtGRfytW-8" value="Wallet Service" style="pointerEvents=1;shadow=0;dashed=0;html=1;strokeColor=none;fillColor=#DF8C42;labelPosition=center;verticalLabelPosition=bottom;verticalAlign=top;align=center;outlineConnect=0;shape=mxgraph.veeam2.restful_api;" vertex="1" parent="1">
          <mxGeometry x="283" y="100" width="34" height="34" as="geometry" />
        </mxCell>
        <mxCell id="djCtfFWqk9Z2EtGRfytW-9" value="ITS Service" style="pointerEvents=1;shadow=0;dashed=0;html=1;strokeColor=none;fillColor=#DF8C42;labelPosition=center;verticalLabelPosition=bottom;verticalAlign=top;align=center;outlineConnect=0;shape=mxgraph.veeam2.restful_api;" vertex="1" parent="1">
          <mxGeometry x="433" y="100" width="34" height="34" as="geometry" />
        </mxCell>
        <mxCell id="djCtfFWqk9Z2EtGRfytW-10" value="Tax Service" style="pointerEvents=1;shadow=0;dashed=0;html=1;strokeColor=none;fillColor=#DF8C42;labelPosition=center;verticalLabelPosition=bottom;verticalAlign=top;align=center;outlineConnect=0;shape=mxgraph.veeam2.restful_api;" vertex="1" parent="1">
          <mxGeometry x="583" y="100" width="34" height="34" as="geometry" />
        </mxCell>
        <mxCell id="djCtfFWqk9Z2EtGRfytW-21" value="Migrator Scala App" style="rounded=1;whiteSpace=wrap;html=1;verticalAlign=top;align=left;dashed=1;" vertex="1" parent="1">
          <mxGeometry x="120" y="460" width="750" height="120" as="geometry" />
        </mxCell>
        <mxCell id="djCtfFWqk9Z2EtGRfytW-22" style="edgeStyle=orthogonalEdgeStyle;rounded=0;orthogonalLoop=1;jettySize=auto;html=1;entryX=0;entryY=0.5;entryDx=0;entryDy=0;" edge="1" parent="1" source="djCtfFWqk9Z2EtGRfytW-23" target="djCtfFWqk9Z2EtGRfytW-37">
          <mxGeometry relative="1" as="geometry" />
        </mxCell>
        <mxCell id="djCtfFWqk9Z2EtGRfytW-23" value="" style="outlineConnect=0;dashed=0;verticalLabelPosition=bottom;verticalAlign=top;align=center;html=1;shape=mxgraph.aws3.mysql_db_instance;fillColor=#2E73B8;gradientColor=none;" vertex="1" parent="1">
          <mxGeometry x="50" y="490" width="60" height="64.5" as="geometry" />
        </mxCell>
        <mxCell id="djCtfFWqk9Z2EtGRfytW-24" style="edgeStyle=orthogonalEdgeStyle;rounded=0;orthogonalLoop=1;jettySize=auto;html=1;" edge="1" parent="1" source="djCtfFWqk9Z2EtGRfytW-26">
          <mxGeometry relative="1" as="geometry">
            <mxPoint x="350" y="410" as="targetPoint" />
          </mxGeometry>
        </mxCell>
        <mxCell id="djCtfFWqk9Z2EtGRfytW-25" style="edgeStyle=orthogonalEdgeStyle;rounded=0;orthogonalLoop=1;jettySize=auto;html=1;entryX=0;entryY=0.5;entryDx=0;entryDy=0;" edge="1" parent="1" source="djCtfFWqk9Z2EtGRfytW-26" target="djCtfFWqk9Z2EtGRfytW-29">
          <mxGeometry relative="1" as="geometry" />
        </mxCell>
        <mxCell id="djCtfFWqk9Z2EtGRfytW-26" value="Wallet Stage" style="rounded=1;whiteSpace=wrap;html=1;" vertex="1" parent="1">
          <mxGeometry x="290" y="492.25" width="120" height="60" as="geometry" />
        </mxCell>
        <mxCell id="djCtfFWqk9Z2EtGRfytW-28" style="edgeStyle=orthogonalEdgeStyle;rounded=0;orthogonalLoop=1;jettySize=auto;html=1;entryX=0;entryY=0.5;entryDx=0;entryDy=0;" edge="1" parent="1" source="djCtfFWqk9Z2EtGRfytW-29" target="djCtfFWqk9Z2EtGRfytW-32">
          <mxGeometry relative="1" as="geometry" />
        </mxCell>
        <mxCell id="djCtfFWqk9Z2EtGRfytW-46" value="" style="edgeStyle=orthogonalEdgeStyle;rounded=0;orthogonalLoop=1;jettySize=auto;html=1;" edge="1" parent="1" source="djCtfFWqk9Z2EtGRfytW-29" target="djCtfFWqk9Z2EtGRfytW-44">
          <mxGeometry relative="1" as="geometry" />
        </mxCell>
        <mxCell id="djCtfFWqk9Z2EtGRfytW-29" value="ITS Stage" style="rounded=1;whiteSpace=wrap;html=1;" vertex="1" parent="1">
          <mxGeometry x="440" y="492.25" width="120" height="60" as="geometry" />
        </mxCell>
        <mxCell id="djCtfFWqk9Z2EtGRfytW-31" style="edgeStyle=orthogonalEdgeStyle;rounded=0;orthogonalLoop=1;jettySize=auto;html=1;entryX=0;entryY=0.5;entryDx=0;entryDy=0;" edge="1" parent="1" source="djCtfFWqk9Z2EtGRfytW-32" target="djCtfFWqk9Z2EtGRfytW-34">
          <mxGeometry relative="1" as="geometry" />
        </mxCell>
        <mxCell id="djCtfFWqk9Z2EtGRfytW-47" style="edgeStyle=orthogonalEdgeStyle;rounded=0;orthogonalLoop=1;jettySize=auto;html=1;" edge="1" parent="1" source="djCtfFWqk9Z2EtGRfytW-32">
          <mxGeometry relative="1" as="geometry">
            <mxPoint x="610" y="410" as="targetPoint" />
          </mxGeometry>
        </mxCell>
        <mxCell id="djCtfFWqk9Z2EtGRfytW-48" style="edgeStyle=orthogonalEdgeStyle;rounded=0;orthogonalLoop=1;jettySize=auto;html=1;entryX=0.5;entryY=1;entryDx=0;entryDy=0;entryPerimeter=0;" edge="1" parent="1" source="djCtfFWqk9Z2EtGRfytW-32" target="djCtfFWqk9Z2EtGRfytW-43">
          <mxGeometry relative="1" as="geometry" />
        </mxCell>
        <mxCell id="djCtfFWqk9Z2EtGRfytW-32" value="Tax Stage" style="rounded=1;whiteSpace=wrap;html=1;" vertex="1" parent="1">
          <mxGeometry x="590" y="492.25" width="120" height="60" as="geometry" />
        </mxCell>
        <mxCell id="djCtfFWqk9Z2EtGRfytW-33" style="edgeStyle=orthogonalEdgeStyle;rounded=0;orthogonalLoop=1;jettySize=auto;html=1;entryX=0;entryY=0.5;entryDx=0;entryDy=0;entryPerimeter=0;" edge="1" parent="1" source="djCtfFWqk9Z2EtGRfytW-34" target="djCtfFWqk9Z2EtGRfytW-35">
          <mxGeometry relative="1" as="geometry" />
        </mxCell>
        <mxCell id="djCtfFWqk9Z2EtGRfytW-34" value="Destination DB Stage" style="rounded=1;whiteSpace=wrap;html=1;" vertex="1" parent="1">
          <mxGeometry x="740" y="492.25" width="120" height="60" as="geometry" />
        </mxCell>
        <mxCell id="djCtfFWqk9Z2EtGRfytW-35" value="Invoice V2 DDB" style="points=[[0,0,0],[0.25,0,0],[0.5,0,0],[0.75,0,0],[1,0,0],[0,1,0],[0.25,1,0],[0.5,1,0],[0.75,1,0],[1,1,0],[0,0.25,0],[0,0.5,0],[0,0.75,0],[1,0.25,0],[1,0.5,0],[1,0.75,0]];outlineConnect=0;fontColor=#232F3E;gradientColor=#4D72F3;gradientDirection=north;fillColor=#3334B9;strokeColor=#ffffff;dashed=0;verticalLabelPosition=bottom;verticalAlign=top;align=center;html=1;fontSize=12;fontStyle=0;aspect=fixed;shape=mxgraph.aws4.resourceIcon;resIcon=mxgraph.aws4.dynamodb;" vertex="1" parent="1">
          <mxGeometry x="890" y="483.25" width="78" height="78" as="geometry" />
        </mxCell>
        <mxCell id="djCtfFWqk9Z2EtGRfytW-36" style="edgeStyle=orthogonalEdgeStyle;rounded=0;orthogonalLoop=1;jettySize=auto;html=1;entryX=0;entryY=0.5;entryDx=0;entryDy=0;" edge="1" parent="1" source="djCtfFWqk9Z2EtGRfytW-37" target="djCtfFWqk9Z2EtGRfytW-26">
          <mxGeometry relative="1" as="geometry" />
        </mxCell>
        <mxCell id="djCtfFWqk9Z2EtGRfytW-37" value="DOTS Stage" style="rounded=1;whiteSpace=wrap;html=1;" vertex="1" parent="1">
          <mxGeometry x="140" y="492.25" width="120" height="60" as="geometry" />
        </mxCell>
        <mxCell id="djCtfFWqk9Z2EtGRfytW-41" value="Wallet DDB" style="points=[[0,0,0],[0.25,0,0],[0.5,0,0],[0.75,0,0],[1,0,0],[0,1,0],[0.25,1,0],[0.5,1,0],[0.75,1,0],[1,1,0],[0,0.25,0],[0,0.5,0],[0,0.75,0],[1,0.25,0],[1,0.5,0],[1,0.75,0]];outlineConnect=0;fontColor=#232F3E;gradientColor=#4D72F3;gradientDirection=north;fillColor=#3334B9;strokeColor=#ffffff;dashed=0;verticalLabelPosition=bottom;verticalAlign=top;align=center;html=1;fontSize=12;fontStyle=0;aspect=fixed;shape=mxgraph.aws4.resourceIcon;resIcon=mxgraph.aws4.dynamodb;" vertex="1" parent="1">
          <mxGeometry x="311" y="330" width="78" height="78" as="geometry" />
        </mxCell>
        <mxCell id="djCtfFWqk9Z2EtGRfytW-42" value="Tax DDB 1" style="points=[[0,0,0],[0.25,0,0],[0.5,0,0],[0.75,0,0],[1,0,0],[0,1,0],[0.25,1,0],[0.5,1,0],[0.75,1,0],[1,1,0],[0,0.25,0],[0,0.5,0],[0,0.75,0],[1,0.25,0],[1,0.5,0],[1,0.75,0]];outlineConnect=0;fontColor=#232F3E;gradientColor=#4D72F3;gradientDirection=north;fillColor=#3334B9;strokeColor=#ffffff;dashed=0;verticalLabelPosition=bottom;verticalAlign=top;align=center;html=1;fontSize=12;fontStyle=0;aspect=fixed;shape=mxgraph.aws4.resourceIcon;resIcon=mxgraph.aws4.dynamodb;" vertex="1" parent="1">
          <mxGeometry x="570" y="330" width="78" height="78" as="geometry" />
        </mxCell>
        <mxCell id="djCtfFWqk9Z2EtGRfytW-43" value="Tax DDB 2" style="points=[[0,0,0],[0.25,0,0],[0.5,0,0],[0.75,0,0],[1,0,0],[0,1,0],[0.25,1,0],[0.5,1,0],[0.75,1,0],[1,1,0],[0,0.25,0],[0,0.5,0],[0,0.75,0],[1,0.25,0],[1,0.5,0],[1,0.75,0]];outlineConnect=0;fontColor=#232F3E;gradientColor=#4D72F3;gradientDirection=north;fillColor=#3334B9;strokeColor=#ffffff;dashed=0;verticalLabelPosition=bottom;verticalAlign=top;align=center;html=1;fontSize=12;fontStyle=0;aspect=fixed;shape=mxgraph.aws4.resourceIcon;resIcon=mxgraph.aws4.dynamodb;" vertex="1" parent="1">
          <mxGeometry x="662" y="330" width="78" height="78" as="geometry" />
        </mxCell>
        <mxCell id="djCtfFWqk9Z2EtGRfytW-44" value="ITS DDB" style="points=[[0,0,0],[0.25,0,0],[0.5,0,0],[0.75,0,0],[1,0,0],[0,1,0],[0.25,1,0],[0.5,1,0],[0.75,1,0],[1,1,0],[0,0.25,0],[0,0.5,0],[0,0.75,0],[1,0.25,0],[1,0.5,0],[1,0.75,0]];outlineConnect=0;fontColor=#232F3E;gradientColor=#4D72F3;gradientDirection=north;fillColor=#3334B9;strokeColor=#ffffff;dashed=0;verticalLabelPosition=bottom;verticalAlign=top;align=center;html=1;fontSize=12;fontStyle=0;aspect=fixed;shape=mxgraph.aws4.resourceIcon;resIcon=mxgraph.aws4.dynamodb;" vertex="1" parent="1">
          <mxGeometry x="461" y="330" width="78" height="78" as="geometry" />
        </mxCell>
        <mxCell id="djCtfFWqk9Z2EtGRfytW-68" style="edgeStyle=orthogonalEdgeStyle;rounded=0;orthogonalLoop=1;jettySize=auto;html=1;" edge="1" parent="1" source="djCtfFWqk9Z2EtGRfytW-49" target="djCtfFWqk9Z2EtGRfytW-55">
          <mxGeometry relative="1" as="geometry" />
        </mxCell>
        <mxCell id="djCtfFWqk9Z2EtGRfytW-49" value="AWS Data Pipeline" style="points=[[0,0,0],[0.25,0,0],[0.5,0,0],[0.75,0,0],[1,0,0],[0,1,0],[0.25,1,0],[0.5,1,0],[0.75,1,0],[1,1,0],[0,0.25,0],[0,0.5,0],[0,0.75,0],[1,0.25,0],[1,0.5,0],[1,0.75,0]];outlineConnect=0;fontColor=#232F3E;gradientColor=#945DF2;gradientDirection=north;fillColor=#5A30B5;strokeColor=#ffffff;dashed=0;verticalLabelPosition=bottom;verticalAlign=top;align=center;html=1;fontSize=12;fontStyle=0;aspect=fixed;shape=mxgraph.aws4.resourceIcon;resIcon=mxgraph.aws4.data_pipeline;" vertex="1" parent="1">
          <mxGeometry x="205" y="870" width="78" height="78" as="geometry" />
        </mxCell>
        <mxCell id="djCtfFWqk9Z2EtGRfytW-61" style="edgeStyle=orthogonalEdgeStyle;rounded=0;orthogonalLoop=1;jettySize=auto;html=1;" edge="1" parent="1" source="djCtfFWqk9Z2EtGRfytW-50" target="djCtfFWqk9Z2EtGRfytW-49">
          <mxGeometry relative="1" as="geometry" />
        </mxCell>
        <mxCell id="djCtfFWqk9Z2EtGRfytW-50" value="DOTS" style="outlineConnect=0;dashed=0;verticalLabelPosition=bottom;verticalAlign=top;align=center;html=1;shape=mxgraph.aws3.mysql_db_instance;fillColor=#2E73B8;gradientColor=none;" vertex="1" parent="1">
          <mxGeometry x="59" y="645.5" width="60" height="64.5" as="geometry" />
        </mxCell>
        <mxCell id="djCtfFWqk9Z2EtGRfytW-63" value="" style="edgeStyle=orthogonalEdgeStyle;rounded=0;orthogonalLoop=1;jettySize=auto;html=1;" edge="1" parent="1" source="djCtfFWqk9Z2EtGRfytW-51" target="djCtfFWqk9Z2EtGRfytW-49">
          <mxGeometry relative="1" as="geometry" />
        </mxCell>
        <mxCell id="djCtfFWqk9Z2EtGRfytW-51" value="Wallet DDB" style="points=[[0,0,0],[0.25,0,0],[0.5,0,0],[0.75,0,0],[1,0,0],[0,1,0],[0.25,1,0],[0.5,1,0],[0.75,1,0],[1,1,0],[0,0.25,0],[0,0.5,0],[0,0.75,0],[1,0.25,0],[1,0.5,0],[1,0.75,0]];outlineConnect=0;fontColor=#232F3E;gradientColor=#4D72F3;gradientDirection=north;fillColor=#3334B9;strokeColor=#ffffff;dashed=0;verticalLabelPosition=bottom;verticalAlign=top;align=center;html=1;fontSize=12;fontStyle=0;aspect=fixed;shape=mxgraph.aws4.resourceIcon;resIcon=mxgraph.aws4.dynamodb;" vertex="1" parent="1">
          <mxGeometry x="50" y="870" width="78" height="78" as="geometry" />
        </mxCell>
        <mxCell id="djCtfFWqk9Z2EtGRfytW-66" style="edgeStyle=orthogonalEdgeStyle;rounded=0;orthogonalLoop=1;jettySize=auto;html=1;" edge="1" parent="1" source="djCtfFWqk9Z2EtGRfytW-52" target="djCtfFWqk9Z2EtGRfytW-49">
          <mxGeometry relative="1" as="geometry">
            <Array as="points">
              <mxPoint x="240" y="1029" />
            </Array>
          </mxGeometry>
        </mxCell>
        <mxCell id="djCtfFWqk9Z2EtGRfytW-52" value="Tax DDB 1" style="points=[[0,0,0],[0.25,0,0],[0.5,0,0],[0.75,0,0],[1,0,0],[0,1,0],[0.25,1,0],[0.5,1,0],[0.75,1,0],[1,1,0],[0,0.25,0],[0,0.5,0],[0,0.75,0],[1,0.25,0],[1,0.5,0],[1,0.75,0]];outlineConnect=0;fontColor=#232F3E;gradientColor=#4D72F3;gradientDirection=north;fillColor=#3334B9;strokeColor=#ffffff;dashed=0;verticalLabelPosition=bottom;verticalAlign=top;align=center;html=1;fontSize=12;fontStyle=0;aspect=fixed;shape=mxgraph.aws4.resourceIcon;resIcon=mxgraph.aws4.dynamodb;" vertex="1" parent="1">
          <mxGeometry x="50" y="990" width="78" height="78" as="geometry" />
        </mxCell>
        <mxCell id="djCtfFWqk9Z2EtGRfytW-67" style="edgeStyle=orthogonalEdgeStyle;rounded=0;orthogonalLoop=1;jettySize=auto;html=1;" edge="1" parent="1" source="djCtfFWqk9Z2EtGRfytW-53">
          <mxGeometry relative="1" as="geometry">
            <mxPoint x="240" y="950" as="targetPoint" />
            <Array as="points">
              <mxPoint x="240" y="1149" />
            </Array>
          </mxGeometry>
        </mxCell>
        <mxCell id="djCtfFWqk9Z2EtGRfytW-53" value="Tax DDB 2" style="points=[[0,0,0],[0.25,0,0],[0.5,0,0],[0.75,0,0],[1,0,0],[0,1,0],[0.25,1,0],[0.5,1,0],[0.75,1,0],[1,1,0],[0,0.25,0],[0,0.5,0],[0,0.75,0],[1,0.25,0],[1,0.5,0],[1,0.75,0]];outlineConnect=0;fontColor=#232F3E;gradientColor=#4D72F3;gradientDirection=north;fillColor=#3334B9;strokeColor=#ffffff;dashed=0;verticalLabelPosition=bottom;verticalAlign=top;align=center;html=1;fontSize=12;fontStyle=0;aspect=fixed;shape=mxgraph.aws4.resourceIcon;resIcon=mxgraph.aws4.dynamodb;" vertex="1" parent="1">
          <mxGeometry x="50" y="1110" width="78" height="78" as="geometry" />
        </mxCell>
        <mxCell id="djCtfFWqk9Z2EtGRfytW-62" style="edgeStyle=orthogonalEdgeStyle;rounded=0;orthogonalLoop=1;jettySize=auto;html=1;" edge="1" parent="1" source="djCtfFWqk9Z2EtGRfytW-54" target="djCtfFWqk9Z2EtGRfytW-49">
          <mxGeometry relative="1" as="geometry" />
        </mxCell>
        <mxCell id="djCtfFWqk9Z2EtGRfytW-54" value="ITS DDB" style="points=[[0,0,0],[0.25,0,0],[0.5,0,0],[0.75,0,0],[1,0,0],[0,1,0],[0.25,1,0],[0.5,1,0],[0.75,1,0],[1,1,0],[0,0.25,0],[0,0.5,0],[0,0.75,0],[1,0.25,0],[1,0.5,0],[1,0.75,0]];outlineConnect=0;fontColor=#232F3E;gradientColor=#4D72F3;gradientDirection=north;fillColor=#3334B9;strokeColor=#ffffff;dashed=0;verticalLabelPosition=bottom;verticalAlign=top;align=center;html=1;fontSize=12;fontStyle=0;aspect=fixed;shape=mxgraph.aws4.resourceIcon;resIcon=mxgraph.aws4.dynamodb;" vertex="1" parent="1">
          <mxGeometry x="50" y="750" width="78" height="78" as="geometry" />
        </mxCell>
        <mxCell id="djCtfFWqk9Z2EtGRfytW-69" style="edgeStyle=orthogonalEdgeStyle;rounded=0;orthogonalLoop=1;jettySize=auto;html=1;" edge="1" parent="1" source="djCtfFWqk9Z2EtGRfytW-55" target="djCtfFWqk9Z2EtGRfytW-56">
          <mxGeometry relative="1" as="geometry" />
        </mxCell>
        <mxCell id="djCtfFWqk9Z2EtGRfytW-55" value="Amazon S3&lt;br&gt;Raw Services Data" style="outlineConnect=0;fontColor=#232F3E;gradientColor=none;strokeColor=#ffffff;fillColor=#232F3E;dashed=0;verticalLabelPosition=middle;verticalAlign=bottom;align=center;html=1;whiteSpace=wrap;fontSize=10;fontStyle=1;spacing=3;shape=mxgraph.aws4.productIcon;prIcon=mxgraph.aws4.s3;" vertex="1" parent="1">
          <mxGeometry x="330" y="844" width="80" height="130" as="geometry" />
        </mxCell>
        <mxCell id="djCtfFWqk9Z2EtGRfytW-70" style="edgeStyle=orthogonalEdgeStyle;rounded=0;orthogonalLoop=1;jettySize=auto;html=1;" edge="1" parent="1" source="djCtfFWqk9Z2EtGRfytW-56" target="djCtfFWqk9Z2EtGRfytW-57">
          <mxGeometry relative="1" as="geometry" />
        </mxCell>
        <mxCell id="djCtfFWqk9Z2EtGRfytW-56" value="AWS Glue" style="outlineConnect=0;fontColor=#232F3E;gradientColor=none;strokeColor=#ffffff;fillColor=#232F3E;dashed=0;verticalLabelPosition=middle;verticalAlign=bottom;align=center;html=1;whiteSpace=wrap;fontSize=10;fontStyle=1;spacing=3;shape=mxgraph.aws4.productIcon;prIcon=mxgraph.aws4.glue;" vertex="1" parent="1">
          <mxGeometry x="455" y="859" width="80" height="100" as="geometry" />
        </mxCell>
        <mxCell id="djCtfFWqk9Z2EtGRfytW-71" value="" style="edgeStyle=orthogonalEdgeStyle;rounded=0;orthogonalLoop=1;jettySize=auto;html=1;" edge="1" parent="1" source="djCtfFWqk9Z2EtGRfytW-57" target="djCtfFWqk9Z2EtGRfytW-58">
          <mxGeometry relative="1" as="geometry" />
        </mxCell>
        <mxCell id="djCtfFWqk9Z2EtGRfytW-57" value="Amazon Athena&lt;br&gt;Data Staging/ETL" style="outlineConnect=0;fontColor=#232F3E;gradientColor=none;strokeColor=#ffffff;fillColor=#232F3E;dashed=0;verticalLabelPosition=middle;verticalAlign=bottom;align=center;html=1;whiteSpace=wrap;fontSize=10;fontStyle=1;spacing=3;shape=mxgraph.aws4.productIcon;prIcon=mxgraph.aws4.athena;" vertex="1" parent="1">
          <mxGeometry x="583" y="839" width="80" height="140" as="geometry" />
        </mxCell>
        <mxCell id="djCtfFWqk9Z2EtGRfytW-72" value="" style="edgeStyle=orthogonalEdgeStyle;rounded=0;orthogonalLoop=1;jettySize=auto;html=1;" edge="1" parent="1" source="djCtfFWqk9Z2EtGRfytW-58" target="djCtfFWqk9Z2EtGRfytW-59">
          <mxGeometry relative="1" as="geometry" />
        </mxCell>
        <mxCell id="djCtfFWqk9Z2EtGRfytW-58" value="Amazon S3&lt;br&gt;Refined Services Data" style="outlineConnect=0;fontColor=#232F3E;gradientColor=none;strokeColor=#ffffff;fillColor=#232F3E;dashed=0;verticalLabelPosition=middle;verticalAlign=bottom;align=center;html=1;whiteSpace=wrap;fontSize=10;fontStyle=1;spacing=3;shape=mxgraph.aws4.productIcon;prIcon=mxgraph.aws4.s3;" vertex="1" parent="1">
          <mxGeometry x="720" y="844" width="80" height="130" as="geometry" />
        </mxCell>
        <mxCell id="djCtfFWqk9Z2EtGRfytW-73" value="" style="edgeStyle=orthogonalEdgeStyle;rounded=0;orthogonalLoop=1;jettySize=auto;html=1;" edge="1" parent="1" source="djCtfFWqk9Z2EtGRfytW-59" target="djCtfFWqk9Z2EtGRfytW-60">
          <mxGeometry relative="1" as="geometry" />
        </mxCell>
        <mxCell id="djCtfFWqk9Z2EtGRfytW-59" value="Migration ECS Tasks" style="outlineConnect=0;fontColor=#232F3E;gradientColor=none;fillColor=#D05C17;strokeColor=none;dashed=0;verticalLabelPosition=bottom;verticalAlign=top;align=center;html=1;fontSize=12;fontStyle=0;aspect=fixed;pointerEvents=1;shape=mxgraph.aws4.ecs_service;" vertex="1" parent="1">
          <mxGeometry x="870" y="870" width="64" height="78" as="geometry" />
        </mxCell>
        <mxCell id="djCtfFWqk9Z2EtGRfytW-60" value="Invoice V2 DDB" style="points=[[0,0,0],[0.25,0,0],[0.5,0,0],[0.75,0,0],[1,0,0],[0,1,0],[0.25,1,0],[0.5,1,0],[0.75,1,0],[1,1,0],[0,0.25,0],[0,0.5,0],[0,0.75,0],[1,0.25,0],[1,0.5,0],[1,0.75,0]];outlineConnect=0;fontColor=#232F3E;gradientColor=#4D72F3;gradientDirection=north;fillColor=#3334B9;strokeColor=#ffffff;dashed=0;verticalLabelPosition=bottom;verticalAlign=top;align=center;html=1;fontSize=12;fontStyle=0;aspect=fixed;shape=mxgraph.aws4.resourceIcon;resIcon=mxgraph.aws4.dynamodb;" vertex="1" parent="1">
          <mxGeometry x="990" y="870" width="78" height="78" as="geometry" />
        </mxCell>
        <mxCell id="djCtfFWqk9Z2EtGRfytW-78" value="RAW_DOTS" style="swimlane;childLayout=stackLayout;horizontal=1;startSize=30;horizontalStack=0;rounded=1;fontSize=14;fontStyle=0;strokeWidth=2;resizeParent=0;resizeLast=1;shadow=0;dashed=0;align=center;" vertex="1" parent="1">
          <mxGeometry x="120" y="1280" width="160" height="120" as="geometry" />
        </mxCell>
        <mxCell id="djCtfFWqk9Z2EtGRfytW-79" value="InvoiceID&#xa;ProductID&#xa;..." style="align=left;strokeColor=none;fillColor=none;spacingLeft=4;fontSize=12;verticalAlign=top;resizable=0;rotatable=0;part=1;" vertex="1" parent="djCtfFWqk9Z2EtGRfytW-78">
          <mxGeometry y="30" width="160" height="90" as="geometry" />
        </mxCell>
        <mxCell id="djCtfFWqk9Z2EtGRfytW-80" value="OLD_TAX" style="swimlane;childLayout=stackLayout;horizontal=1;startSize=30;horizontalStack=0;rounded=1;fontSize=14;fontStyle=0;strokeWidth=2;resizeParent=0;resizeLast=1;shadow=0;dashed=0;align=center;" vertex="1" parent="1">
          <mxGeometry x="580" y="1510" width="160" height="120" as="geometry" />
        </mxCell>
        <mxCell id="djCtfFWqk9Z2EtGRfytW-81" value="InvoiceID&#xa;Sku&#xa;..." style="align=left;strokeColor=none;fillColor=none;spacingLeft=4;fontSize=12;verticalAlign=top;resizable=0;rotatable=0;part=1;" vertex="1" parent="djCtfFWqk9Z2EtGRfytW-80">
          <mxGeometry y="30" width="160" height="90" as="geometry" />
        </mxCell>
        <mxCell id="djCtfFWqk9Z2EtGRfytW-82" value="ProductMappings" style="swimlane;childLayout=stackLayout;horizontal=1;startSize=30;horizontalStack=0;rounded=1;fontSize=14;fontStyle=0;strokeWidth=2;resizeParent=0;resizeLast=1;shadow=0;dashed=0;align=center;" vertex="1" parent="1">
          <mxGeometry x="350" y="1280" width="160" height="120" as="geometry" />
        </mxCell>
        <mxCell id="djCtfFWqk9Z2EtGRfytW-83" value="ProductId&#xa;Sku&#xa;..." style="align=left;strokeColor=none;fillColor=none;spacingLeft=4;fontSize=12;verticalAlign=top;resizable=0;rotatable=0;part=1;" vertex="1" parent="djCtfFWqk9Z2EtGRfytW-82">
          <mxGeometry y="30" width="160" height="90" as="geometry" />
        </mxCell>
        <mxCell id="djCtfFWqk9Z2EtGRfytW-84" value="TAX_BEFORE_NOV" style="swimlane;childLayout=stackLayout;horizontal=1;startSize=30;horizontalStack=0;rounded=1;fontSize=14;fontStyle=0;strokeWidth=2;resizeParent=0;resizeLast=1;shadow=0;dashed=0;align=center;" vertex="1" parent="1">
          <mxGeometry x="770" y="1510" width="160" height="120" as="geometry" />
        </mxCell>
        <mxCell id="djCtfFWqk9Z2EtGRfytW-85" value="InvoiceID&#xa;Sku&#xa;..." style="align=left;strokeColor=none;fillColor=none;spacingLeft=4;fontSize=12;verticalAlign=top;resizable=0;rotatable=0;part=1;" vertex="1" parent="djCtfFWqk9Z2EtGRfytW-84">
          <mxGeometry y="30" width="160" height="90" as="geometry" />
        </mxCell>
        <mxCell id="djCtfFWqk9Z2EtGRfytW-86" value="TAX" style="swimlane;childLayout=stackLayout;horizontal=1;startSize=30;horizontalStack=0;rounded=1;fontSize=14;fontStyle=0;strokeWidth=2;resizeParent=0;resizeLast=1;shadow=0;dashed=0;align=center;" vertex="1" parent="1">
          <mxGeometry x="949" y="1510" width="160" height="120" as="geometry" />
        </mxCell>
        <mxCell id="djCtfFWqk9Z2EtGRfytW-87" value="InvoiceID&#xa;Sku&#xa;..." style="align=left;strokeColor=none;fillColor=none;spacingLeft=4;fontSize=12;verticalAlign=top;resizable=0;rotatable=0;part=1;" vertex="1" parent="djCtfFWqk9Z2EtGRfytW-86">
          <mxGeometry y="30" width="160" height="90" as="geometry" />
        </mxCell>
        <mxCell id="djCtfFWqk9Z2EtGRfytW-88" value="ALL_TAX" style="swimlane;childLayout=stackLayout;horizontal=1;startSize=30;horizontalStack=0;rounded=1;fontSize=14;fontStyle=0;strokeWidth=2;resizeParent=0;resizeLast=1;shadow=0;dashed=0;align=center;" vertex="1" parent="1">
          <mxGeometry x="770" y="1740" width="160" height="120" as="geometry" />
        </mxCell>
        <mxCell id="djCtfFWqk9Z2EtGRfytW-89" value="InvoiceID&#xa;Sku&#xa;..." style="align=left;strokeColor=none;fillColor=none;spacingLeft=4;fontSize=12;verticalAlign=top;resizable=0;rotatable=0;part=1;" vertex="1" parent="djCtfFWqk9Z2EtGRfytW-88">
          <mxGeometry y="30" width="160" height="90" as="geometry" />
        </mxCell>
        <mxCell id="djCtfFWqk9Z2EtGRfytW-90" style="edgeStyle=orthogonalEdgeStyle;rounded=0;orthogonalLoop=1;jettySize=auto;html=1;entryX=-0.003;entryY=0.425;entryDx=0;entryDy=0;entryPerimeter=0;" edge="1" parent="1" source="djCtfFWqk9Z2EtGRfytW-81" target="djCtfFWqk9Z2EtGRfytW-89">
          <mxGeometry relative="1" as="geometry">
            <Array as="points">
              <mxPoint x="650" y="1608" />
            </Array>
          </mxGeometry>
        </mxCell>
        <mxCell id="djCtfFWqk9Z2EtGRfytW-91" style="edgeStyle=orthogonalEdgeStyle;rounded=0;orthogonalLoop=1;jettySize=auto;html=1;entryX=0.5;entryY=0;entryDx=0;entryDy=0;" edge="1" parent="1" source="djCtfFWqk9Z2EtGRfytW-85" target="djCtfFWqk9Z2EtGRfytW-88">
          <mxGeometry relative="1" as="geometry" />
        </mxCell>
        <mxCell id="djCtfFWqk9Z2EtGRfytW-95" style="edgeStyle=orthogonalEdgeStyle;rounded=0;orthogonalLoop=1;jettySize=auto;html=1;entryX=0.997;entryY=0.41;entryDx=0;entryDy=0;entryPerimeter=0;" edge="1" parent="1" source="djCtfFWqk9Z2EtGRfytW-87" target="djCtfFWqk9Z2EtGRfytW-89">
          <mxGeometry relative="1" as="geometry">
            <Array as="points">
              <mxPoint x="1029" y="1807" />
            </Array>
          </mxGeometry>
        </mxCell>
        <mxCell id="djCtfFWqk9Z2EtGRfytW-100" value="RAW_OLD_TAX" style="swimlane;childLayout=stackLayout;horizontal=1;startSize=30;horizontalStack=0;rounded=1;fontSize=14;fontStyle=0;strokeWidth=2;resizeParent=0;resizeLast=1;shadow=0;dashed=0;align=center;" vertex="1" parent="1">
          <mxGeometry x="580" y="1280" width="160" height="120" as="geometry" />
        </mxCell>
        <mxCell id="djCtfFWqk9Z2EtGRfytW-101" value="InvoiceID&#xa;Sku&#xa;..." style="align=left;strokeColor=none;fillColor=none;spacingLeft=4;fontSize=12;verticalAlign=top;resizable=0;rotatable=0;part=1;" vertex="1" parent="djCtfFWqk9Z2EtGRfytW-100">
          <mxGeometry y="30" width="160" height="90" as="geometry" />
        </mxCell>
        <mxCell id="djCtfFWqk9Z2EtGRfytW-103" style="edgeStyle=orthogonalEdgeStyle;rounded=0;orthogonalLoop=1;jettySize=auto;html=1;entryX=0.5;entryY=0;entryDx=0;entryDy=0;" edge="1" parent="1" source="djCtfFWqk9Z2EtGRfytW-101" target="djCtfFWqk9Z2EtGRfytW-80">
          <mxGeometry relative="1" as="geometry" />
        </mxCell>
        <mxCell id="djCtfFWqk9Z2EtGRfytW-106" style="edgeStyle=orthogonalEdgeStyle;rounded=0;orthogonalLoop=1;jettySize=auto;html=1;entryX=0.5;entryY=0;entryDx=0;entryDy=0;" edge="1" parent="1" source="djCtfFWqk9Z2EtGRfytW-104" target="djCtfFWqk9Z2EtGRfytW-84">
          <mxGeometry relative="1" as="geometry" />
        </mxCell>
        <mxCell id="djCtfFWqk9Z2EtGRfytW-104" value="TAX" style="swimlane;childLayout=stackLayout;horizontal=1;startSize=30;horizontalStack=0;rounded=1;fontSize=14;fontStyle=0;strokeWidth=2;resizeParent=0;resizeLast=1;shadow=0;dashed=0;align=center;" vertex="1" parent="1">
          <mxGeometry x="849" y="1280" width="160" height="120" as="geometry" />
        </mxCell>
        <mxCell id="djCtfFWqk9Z2EtGRfytW-105" value="InvoiceID&#xa;Sku&#xa;..." style="align=left;strokeColor=none;fillColor=none;spacingLeft=4;fontSize=12;verticalAlign=top;resizable=0;rotatable=0;part=1;" vertex="1" parent="djCtfFWqk9Z2EtGRfytW-104">
          <mxGeometry y="30" width="160" height="90" as="geometry" />
        </mxCell>
        <mxCell id="djCtfFWqk9Z2EtGRfytW-107" style="edgeStyle=orthogonalEdgeStyle;rounded=0;orthogonalLoop=1;jettySize=auto;html=1;" edge="1" parent="1" source="djCtfFWqk9Z2EtGRfytW-105" target="djCtfFWqk9Z2EtGRfytW-86">
          <mxGeometry relative="1" as="geometry" />
        </mxCell>
        <mxCell id="djCtfFWqk9Z2EtGRfytW-108" value="TAX_HEADER" style="swimlane;childLayout=stackLayout;horizontal=1;startSize=30;horizontalStack=0;rounded=1;fontSize=14;fontStyle=0;strokeWidth=2;resizeParent=0;resizeLast=1;shadow=0;dashed=0;align=center;" vertex="1" parent="1">
          <mxGeometry x="990" y="1850" width="160" height="120" as="geometry" />
        </mxCell>
        <mxCell id="djCtfFWqk9Z2EtGRfytW-109" value="InvoiceID&#xa;..." style="align=left;strokeColor=none;fillColor=none;spacingLeft=4;fontSize=12;verticalAlign=top;resizable=0;rotatable=0;part=1;" vertex="1" parent="djCtfFWqk9Z2EtGRfytW-108">
          <mxGeometry y="30" width="160" height="90" as="geometry" />
        </mxCell>
        <mxCell id="djCtfFWqk9Z2EtGRfytW-132" style="edgeStyle=orthogonalEdgeStyle;rounded=0;orthogonalLoop=1;jettySize=auto;html=1;entryX=0.5;entryY=0;entryDx=0;entryDy=0;" edge="1" parent="1" source="djCtfFWqk9Z2EtGRfytW-110" target="djCtfFWqk9Z2EtGRfytW-112">
          <mxGeometry relative="1" as="geometry">
            <Array as="points">
              <mxPoint x="130" y="1570" />
              <mxPoint x="130" y="1830" />
            </Array>
          </mxGeometry>
        </mxCell>
        <mxCell id="djCtfFWqk9Z2EtGRfytW-110" value="DOTS" style="swimlane;childLayout=stackLayout;horizontal=1;startSize=30;horizontalStack=0;rounded=1;fontSize=14;fontStyle=0;strokeWidth=2;resizeParent=0;resizeLast=1;shadow=0;dashed=0;align=center;" vertex="1" parent="1">
          <mxGeometry x="240" y="1510" width="160" height="120" as="geometry" />
        </mxCell>
        <mxCell id="djCtfFWqk9Z2EtGRfytW-111" value="InvoiceID&#xa;Sku&#xa;..." style="align=left;strokeColor=none;fillColor=none;spacingLeft=4;fontSize=12;verticalAlign=top;resizable=0;rotatable=0;part=1;" vertex="1" parent="djCtfFWqk9Z2EtGRfytW-110">
          <mxGeometry y="30" width="160" height="90" as="geometry" />
        </mxCell>
        <mxCell id="djCtfFWqk9Z2EtGRfytW-112" value="DOTS_HEADER" style="swimlane;childLayout=stackLayout;horizontal=1;startSize=30;horizontalStack=0;rounded=1;fontSize=14;fontStyle=0;strokeWidth=2;resizeParent=0;resizeLast=1;shadow=0;dashed=0;align=center;" vertex="1" parent="1">
          <mxGeometry x="50" y="1830" width="160" height="120" as="geometry" />
        </mxCell>
        <mxCell id="djCtfFWqk9Z2EtGRfytW-113" value="InvoiceID&#xa;..." style="align=left;strokeColor=none;fillColor=none;spacingLeft=4;fontSize=12;verticalAlign=top;resizable=0;rotatable=0;part=1;" vertex="1" parent="djCtfFWqk9Z2EtGRfytW-112">
          <mxGeometry y="30" width="160" height="90" as="geometry" />
        </mxCell>
        <mxCell id="djCtfFWqk9Z2EtGRfytW-114" style="edgeStyle=orthogonalEdgeStyle;rounded=0;orthogonalLoop=1;jettySize=auto;html=1;" edge="1" parent="1" source="djCtfFWqk9Z2EtGRfytW-83" target="djCtfFWqk9Z2EtGRfytW-110">
          <mxGeometry relative="1" as="geometry">
            <Array as="points">
              <mxPoint x="420" y="1480" />
              <mxPoint x="320" y="1480" />
            </Array>
          </mxGeometry>
        </mxCell>
        <mxCell id="djCtfFWqk9Z2EtGRfytW-115" style="edgeStyle=orthogonalEdgeStyle;rounded=0;orthogonalLoop=1;jettySize=auto;html=1;" edge="1" parent="1" source="djCtfFWqk9Z2EtGRfytW-79" target="djCtfFWqk9Z2EtGRfytW-110">
          <mxGeometry relative="1" as="geometry">
            <Array as="points">
              <mxPoint x="200" y="1480" />
              <mxPoint x="320" y="1480" />
            </Array>
          </mxGeometry>
        </mxCell>
        <mxCell id="djCtfFWqk9Z2EtGRfytW-116" value="RAW_ITS" style="swimlane;childLayout=stackLayout;horizontal=1;startSize=30;horizontalStack=0;rounded=1;fontSize=14;fontStyle=0;strokeWidth=2;resizeParent=0;resizeLast=1;shadow=0;dashed=0;align=center;" vertex="1" parent="1">
          <mxGeometry x="-110" y="1280" width="160" height="120" as="geometry" />
        </mxCell>
        <mxCell id="djCtfFWqk9Z2EtGRfytW-117" value="InvoiceID&#xa;..." style="align=left;strokeColor=none;fillColor=none;spacingLeft=4;fontSize=12;verticalAlign=top;resizable=0;rotatable=0;part=1;" vertex="1" parent="djCtfFWqk9Z2EtGRfytW-116">
          <mxGeometry y="30" width="160" height="90" as="geometry" />
        </mxCell>
        <mxCell id="djCtfFWqk9Z2EtGRfytW-119" value="ITS" style="swimlane;childLayout=stackLayout;horizontal=1;startSize=30;horizontalStack=0;rounded=1;fontSize=14;fontStyle=0;strokeWidth=2;resizeParent=0;resizeLast=1;shadow=0;dashed=0;align=center;" vertex="1" parent="1">
          <mxGeometry x="-110" y="1510" width="160" height="120" as="geometry" />
        </mxCell>
        <mxCell id="djCtfFWqk9Z2EtGRfytW-120" value="InvoiceID&#xa;..." style="align=left;strokeColor=none;fillColor=none;spacingLeft=4;fontSize=12;verticalAlign=top;resizable=0;rotatable=0;part=1;" vertex="1" parent="djCtfFWqk9Z2EtGRfytW-119">
          <mxGeometry y="30" width="160" height="90" as="geometry" />
        </mxCell>
        <mxCell id="djCtfFWqk9Z2EtGRfytW-121" style="edgeStyle=orthogonalEdgeStyle;rounded=0;orthogonalLoop=1;jettySize=auto;html=1;entryX=0.5;entryY=0;entryDx=0;entryDy=0;" edge="1" parent="1" source="djCtfFWqk9Z2EtGRfytW-117" target="djCtfFWqk9Z2EtGRfytW-119">
          <mxGeometry relative="1" as="geometry" />
        </mxCell>
        <mxCell id="djCtfFWqk9Z2EtGRfytW-122" value="RAW_WALLET" style="swimlane;childLayout=stackLayout;horizontal=1;startSize=30;horizontalStack=0;rounded=1;fontSize=14;fontStyle=0;strokeWidth=2;resizeParent=0;resizeLast=1;shadow=0;dashed=0;align=center;" vertex="1" parent="1">
          <mxGeometry x="-340" y="1280" width="160" height="120" as="geometry" />
        </mxCell>
        <mxCell id="djCtfFWqk9Z2EtGRfytW-123" value="WalletId&#xa;..." style="align=left;strokeColor=none;fillColor=none;spacingLeft=4;fontSize=12;verticalAlign=top;resizable=0;rotatable=0;part=1;" vertex="1" parent="djCtfFWqk9Z2EtGRfytW-122">
          <mxGeometry y="30" width="160" height="90" as="geometry" />
        </mxCell>
        <mxCell id="djCtfFWqk9Z2EtGRfytW-124" value="WALLET" style="swimlane;childLayout=stackLayout;horizontal=1;startSize=30;horizontalStack=0;rounded=1;fontSize=14;fontStyle=0;strokeWidth=2;resizeParent=0;resizeLast=1;shadow=0;dashed=0;align=center;" vertex="1" parent="1">
          <mxGeometry x="-340" y="1510" width="160" height="120" as="geometry" />
        </mxCell>
        <mxCell id="djCtfFWqk9Z2EtGRfytW-125" value="WalletId&#xa;PaymentMethodId&#xa;..." style="align=left;strokeColor=none;fillColor=none;spacingLeft=4;fontSize=12;verticalAlign=top;resizable=0;rotatable=0;part=1;" vertex="1" parent="djCtfFWqk9Z2EtGRfytW-124">
          <mxGeometry y="30" width="160" height="90" as="geometry" />
        </mxCell>
        <mxCell id="djCtfFWqk9Z2EtGRfytW-127" style="edgeStyle=orthogonalEdgeStyle;rounded=0;orthogonalLoop=1;jettySize=auto;html=1;entryX=0.5;entryY=0;entryDx=0;entryDy=0;" edge="1" parent="1" source="djCtfFWqk9Z2EtGRfytW-123" target="djCtfFWqk9Z2EtGRfytW-124">
          <mxGeometry relative="1" as="geometry" />
        </mxCell>
        <mxCell id="djCtfFWqk9Z2EtGRfytW-128" value="LINE_ITEMS" style="swimlane;childLayout=stackLayout;horizontal=1;startSize=30;horizontalStack=0;rounded=1;fontSize=14;fontStyle=0;strokeWidth=2;resizeParent=0;resizeLast=1;shadow=0;dashed=0;align=center;" vertex="1" parent="1">
          <mxGeometry x="430" y="1840" width="160" height="120" as="geometry" />
        </mxCell>
        <mxCell id="djCtfFWqk9Z2EtGRfytW-129" value="InvoiceID&#xa;{Sku, ..., ...}&#xa;..." style="align=left;strokeColor=none;fillColor=none;spacingLeft=4;fontSize=12;verticalAlign=top;resizable=0;rotatable=0;part=1;" vertex="1" parent="djCtfFWqk9Z2EtGRfytW-128">
          <mxGeometry y="30" width="160" height="90" as="geometry" />
        </mxCell>
        <mxCell id="djCtfFWqk9Z2EtGRfytW-130" style="edgeStyle=orthogonalEdgeStyle;rounded=0;orthogonalLoop=1;jettySize=auto;html=1;entryX=0.5;entryY=0;entryDx=0;entryDy=0;" edge="1" parent="1" source="djCtfFWqk9Z2EtGRfytW-111" target="djCtfFWqk9Z2EtGRfytW-128">
          <mxGeometry relative="1" as="geometry">
            <Array as="points">
              <mxPoint x="510" y="1570" />
            </Array>
          </mxGeometry>
        </mxCell>
        <mxCell id="djCtfFWqk9Z2EtGRfytW-131" style="edgeStyle=orthogonalEdgeStyle;rounded=0;orthogonalLoop=1;jettySize=auto;html=1;entryX=0.998;entryY=0.362;entryDx=0;entryDy=0;entryPerimeter=0;" edge="1" parent="1" source="djCtfFWqk9Z2EtGRfytW-89" target="djCtfFWqk9Z2EtGRfytW-129">
          <mxGeometry relative="1" as="geometry">
            <Array as="points">
              <mxPoint x="838" y="1903" />
              <mxPoint x="680" y="1903" />
            </Array>
          </mxGeometry>
        </mxCell>
        <mxCell id="djCtfFWqk9Z2EtGRfytW-133" style="edgeStyle=orthogonalEdgeStyle;rounded=0;orthogonalLoop=1;jettySize=auto;html=1;" edge="1" parent="1" source="djCtfFWqk9Z2EtGRfytW-89" target="djCtfFWqk9Z2EtGRfytW-108">
          <mxGeometry relative="1" as="geometry">
            <Array as="points">
              <mxPoint x="940" y="1810" />
              <mxPoint x="940" y="1810" />
            </Array>
          </mxGeometry>
        </mxCell>
        <mxCell id="djCtfFWqk9Z2EtGRfytW-134" value="RESULT" style="swimlane;childLayout=stackLayout;horizontal=1;startSize=30;horizontalStack=0;rounded=1;fontSize=14;fontStyle=0;strokeWidth=2;resizeParent=0;resizeLast=1;shadow=0;dashed=0;align=center;" vertex="1" parent="1">
          <mxGeometry x="220" y="2060" width="160" height="120" as="geometry" />
        </mxCell>
        <mxCell id="djCtfFWqk9Z2EtGRfytW-135" value="InvoiceID&#xa;{Sku, ..., ...}&#xa;..." style="align=left;strokeColor=none;fillColor=none;spacingLeft=4;fontSize=12;verticalAlign=top;resizable=0;rotatable=0;part=1;" vertex="1" parent="djCtfFWqk9Z2EtGRfytW-134">
          <mxGeometry y="30" width="160" height="90" as="geometry" />
        </mxCell>
        <mxCell id="djCtfFWqk9Z2EtGRfytW-136" style="edgeStyle=orthogonalEdgeStyle;rounded=0;orthogonalLoop=1;jettySize=auto;html=1;entryX=0;entryY=0.5;entryDx=0;entryDy=0;" edge="1" parent="1" source="djCtfFWqk9Z2EtGRfytW-125" target="djCtfFWqk9Z2EtGRfytW-135">
          <mxGeometry relative="1" as="geometry">
            <Array as="points">
              <mxPoint x="-270" y="2135" />
            </Array>
          </mxGeometry>
        </mxCell>
        <mxCell id="djCtfFWqk9Z2EtGRfytW-137" style="edgeStyle=orthogonalEdgeStyle;rounded=0;orthogonalLoop=1;jettySize=auto;html=1;entryX=0;entryY=0.5;entryDx=0;entryDy=0;" edge="1" parent="1" source="djCtfFWqk9Z2EtGRfytW-120" target="djCtfFWqk9Z2EtGRfytW-135">
          <mxGeometry relative="1" as="geometry">
            <Array as="points">
              <mxPoint x="-50" y="2135" />
            </Array>
          </mxGeometry>
        </mxCell>
        <mxCell id="djCtfFWqk9Z2EtGRfytW-138" style="edgeStyle=orthogonalEdgeStyle;rounded=0;orthogonalLoop=1;jettySize=auto;html=1;entryX=0;entryY=0.5;entryDx=0;entryDy=0;" edge="1" parent="1" source="djCtfFWqk9Z2EtGRfytW-113" target="djCtfFWqk9Z2EtGRfytW-135">
          <mxGeometry relative="1" as="geometry">
            <Array as="points">
              <mxPoint x="130" y="2135" />
            </Array>
          </mxGeometry>
        </mxCell>
        <mxCell id="djCtfFWqk9Z2EtGRfytW-141" style="edgeStyle=orthogonalEdgeStyle;rounded=0;orthogonalLoop=1;jettySize=auto;html=1;entryX=1;entryY=0.5;entryDx=0;entryDy=0;" edge="1" parent="1" source="djCtfFWqk9Z2EtGRfytW-109" target="djCtfFWqk9Z2EtGRfytW-135">
          <mxGeometry relative="1" as="geometry">
            <Array as="points">
              <mxPoint x="1048" y="2135" />
            </Array>
          </mxGeometry>
        </mxCell>
        <mxCell id="djCtfFWqk9Z2EtGRfytW-143" style="edgeStyle=orthogonalEdgeStyle;rounded=0;orthogonalLoop=1;jettySize=auto;html=1;entryX=1;entryY=0.5;entryDx=0;entryDy=0;" edge="1" parent="1" source="djCtfFWqk9Z2EtGRfytW-129" target="djCtfFWqk9Z2EtGRfytW-135">
          <mxGeometry relative="1" as="geometry">
            <Array as="points">
              <mxPoint x="510" y="2135" />
            </Array>
          </mxGeometry>
        </mxCell>
        <mxCell id="djCtfFWqk9Z2EtGRfytW-144" value="" style="shape=table;html=1;whiteSpace=wrap;startSize=0;container=1;collapsible=0;childLayout=tableLayout;dashed=1;align=left;verticalAlign=top;" vertex="1" parent="1">
          <mxGeometry x="350" y="2610" width="240" height="200" as="geometry" />
        </mxCell>
        <mxCell id="djCtfFWqk9Z2EtGRfytW-145" value="" style="shape=partialRectangle;html=1;whiteSpace=wrap;collapsible=0;dropTarget=0;pointerEvents=0;fillColor=none;top=0;left=0;bottom=0;right=0;points=[[0,0.5],[1,0.5]];portConstraint=eastwest;" vertex="1" parent="djCtfFWqk9Z2EtGRfytW-144">
          <mxGeometry width="240" height="40" as="geometry" />
        </mxCell>
        <mxCell id="djCtfFWqk9Z2EtGRfytW-146" value="row_num" style="shape=partialRectangle;html=1;whiteSpace=wrap;connectable=0;fillColor=none;top=0;left=0;bottom=0;right=0;overflow=hidden;pointerEvents=1;" vertex="1" parent="djCtfFWqk9Z2EtGRfytW-145">
          <mxGeometry width="60" height="40" as="geometry" />
        </mxCell>
        <mxCell id="djCtfFWqk9Z2EtGRfytW-147" value="priority" style="shape=partialRectangle;html=1;whiteSpace=wrap;connectable=0;fillColor=none;top=0;left=0;bottom=0;right=0;overflow=hidden;pointerEvents=1;" vertex="1" parent="djCtfFWqk9Z2EtGRfytW-145">
          <mxGeometry x="60" width="60" height="40" as="geometry" />
        </mxCell>
        <mxCell id="djCtfFWqk9Z2EtGRfytW-148" value="invoice_id" style="shape=partialRectangle;html=1;whiteSpace=wrap;connectable=0;fillColor=none;top=0;left=0;bottom=0;right=0;overflow=hidden;pointerEvents=1;" vertex="1" parent="djCtfFWqk9Z2EtGRfytW-145">
          <mxGeometry x="120" width="60" height="40" as="geometry" />
        </mxCell>
        <mxCell id="djCtfFWqk9Z2EtGRfytW-162" value="sku" style="shape=partialRectangle;html=1;whiteSpace=wrap;connectable=0;fillColor=none;top=0;left=0;bottom=0;right=0;overflow=hidden;pointerEvents=1;" vertex="1" parent="djCtfFWqk9Z2EtGRfytW-145">
          <mxGeometry x="180" width="60" height="40" as="geometry" />
        </mxCell>
        <mxCell id="djCtfFWqk9Z2EtGRfytW-149" value="" style="shape=partialRectangle;html=1;whiteSpace=wrap;collapsible=0;dropTarget=0;pointerEvents=0;fillColor=none;top=0;left=0;bottom=0;right=0;points=[[0,0.5],[1,0.5]];portConstraint=eastwest;" vertex="1" parent="djCtfFWqk9Z2EtGRfytW-144">
          <mxGeometry y="40" width="240" height="40" as="geometry" />
        </mxCell>
        <mxCell id="djCtfFWqk9Z2EtGRfytW-150" value="1" style="shape=partialRectangle;html=1;whiteSpace=wrap;connectable=0;fillColor=none;top=0;left=0;bottom=0;right=0;overflow=hidden;pointerEvents=1;" vertex="1" parent="djCtfFWqk9Z2EtGRfytW-149">
          <mxGeometry width="60" height="40" as="geometry" />
        </mxCell>
        <mxCell id="djCtfFWqk9Z2EtGRfytW-151" value="0" style="shape=partialRectangle;html=1;whiteSpace=wrap;connectable=0;fillColor=none;top=0;left=0;bottom=0;right=0;overflow=hidden;pointerEvents=1;" vertex="1" parent="djCtfFWqk9Z2EtGRfytW-149">
          <mxGeometry x="60" width="60" height="40" as="geometry" />
        </mxCell>
        <mxCell id="djCtfFWqk9Z2EtGRfytW-152" value="inv_1" style="shape=partialRectangle;html=1;whiteSpace=wrap;connectable=0;fillColor=none;top=0;left=0;bottom=0;right=0;overflow=hidden;pointerEvents=1;" vertex="1" parent="djCtfFWqk9Z2EtGRfytW-149">
          <mxGeometry x="120" width="60" height="40" as="geometry" />
        </mxCell>
        <mxCell id="djCtfFWqk9Z2EtGRfytW-163" value="sku_1" style="shape=partialRectangle;html=1;whiteSpace=wrap;connectable=0;fillColor=none;top=0;left=0;bottom=0;right=0;overflow=hidden;pointerEvents=1;" vertex="1" parent="djCtfFWqk9Z2EtGRfytW-149">
          <mxGeometry x="180" width="60" height="40" as="geometry" />
        </mxCell>
        <mxCell id="djCtfFWqk9Z2EtGRfytW-170" style="shape=partialRectangle;html=1;whiteSpace=wrap;collapsible=0;dropTarget=0;pointerEvents=0;fillColor=none;top=0;left=0;bottom=0;right=0;points=[[0,0.5],[1,0.5]];portConstraint=eastwest;" vertex="1" parent="djCtfFWqk9Z2EtGRfytW-144">
          <mxGeometry y="80" width="240" height="40" as="geometry" />
        </mxCell>
        <mxCell id="djCtfFWqk9Z2EtGRfytW-171" value="2" style="shape=partialRectangle;html=1;whiteSpace=wrap;connectable=0;fillColor=none;top=0;left=0;bottom=0;right=0;overflow=hidden;pointerEvents=1;" vertex="1" parent="djCtfFWqk9Z2EtGRfytW-170">
          <mxGeometry width="60" height="40" as="geometry" />
        </mxCell>
        <mxCell id="djCtfFWqk9Z2EtGRfytW-172" value="1" style="shape=partialRectangle;html=1;whiteSpace=wrap;connectable=0;fillColor=none;top=0;left=0;bottom=0;right=0;overflow=hidden;pointerEvents=1;" vertex="1" parent="djCtfFWqk9Z2EtGRfytW-170">
          <mxGeometry x="60" width="60" height="40" as="geometry" />
        </mxCell>
        <mxCell id="djCtfFWqk9Z2EtGRfytW-173" value="inv_1" style="shape=partialRectangle;html=1;whiteSpace=wrap;connectable=0;fillColor=none;top=0;left=0;bottom=0;right=0;overflow=hidden;pointerEvents=1;" vertex="1" parent="djCtfFWqk9Z2EtGRfytW-170">
          <mxGeometry x="120" width="60" height="40" as="geometry" />
        </mxCell>
        <mxCell id="djCtfFWqk9Z2EtGRfytW-174" value="sku_1" style="shape=partialRectangle;html=1;whiteSpace=wrap;connectable=0;fillColor=none;top=0;left=0;bottom=0;right=0;overflow=hidden;pointerEvents=1;" vertex="1" parent="djCtfFWqk9Z2EtGRfytW-170">
          <mxGeometry x="180" width="60" height="40" as="geometry" />
        </mxCell>
        <mxCell id="djCtfFWqk9Z2EtGRfytW-165" style="shape=partialRectangle;html=1;whiteSpace=wrap;collapsible=0;dropTarget=0;pointerEvents=0;fillColor=none;top=0;left=0;bottom=0;right=0;points=[[0,0.5],[1,0.5]];portConstraint=eastwest;" vertex="1" parent="djCtfFWqk9Z2EtGRfytW-144">
          <mxGeometry y="120" width="240" height="40" as="geometry" />
        </mxCell>
        <mxCell id="djCtfFWqk9Z2EtGRfytW-166" value="1" style="shape=partialRectangle;html=1;whiteSpace=wrap;connectable=0;fillColor=none;top=0;left=0;bottom=0;right=0;overflow=hidden;pointerEvents=1;" vertex="1" parent="djCtfFWqk9Z2EtGRfytW-165">
          <mxGeometry width="60" height="40" as="geometry" />
        </mxCell>
        <mxCell id="djCtfFWqk9Z2EtGRfytW-167" value="1" style="shape=partialRectangle;html=1;whiteSpace=wrap;connectable=0;fillColor=none;top=0;left=0;bottom=0;right=0;overflow=hidden;pointerEvents=1;" vertex="1" parent="djCtfFWqk9Z2EtGRfytW-165">
          <mxGeometry x="60" width="60" height="40" as="geometry" />
        </mxCell>
        <mxCell id="djCtfFWqk9Z2EtGRfytW-168" value="inv_2" style="shape=partialRectangle;html=1;whiteSpace=wrap;connectable=0;fillColor=none;top=0;left=0;bottom=0;right=0;overflow=hidden;pointerEvents=1;" vertex="1" parent="djCtfFWqk9Z2EtGRfytW-165">
          <mxGeometry x="120" width="60" height="40" as="geometry" />
        </mxCell>
        <mxCell id="djCtfFWqk9Z2EtGRfytW-169" value="sku_1" style="shape=partialRectangle;html=1;whiteSpace=wrap;connectable=0;fillColor=none;top=0;left=0;bottom=0;right=0;overflow=hidden;pointerEvents=1;" vertex="1" parent="djCtfFWqk9Z2EtGRfytW-165">
          <mxGeometry x="180" width="60" height="40" as="geometry" />
        </mxCell>
        <mxCell id="djCtfFWqk9Z2EtGRfytW-153" value="" style="shape=partialRectangle;html=1;whiteSpace=wrap;collapsible=0;dropTarget=0;pointerEvents=0;fillColor=none;top=0;left=0;bottom=0;right=0;points=[[0,0.5],[1,0.5]];portConstraint=eastwest;" vertex="1" parent="djCtfFWqk9Z2EtGRfytW-144">
          <mxGeometry y="160" width="240" height="40" as="geometry" />
        </mxCell>
        <mxCell id="djCtfFWqk9Z2EtGRfytW-154" value="2" style="shape=partialRectangle;html=1;whiteSpace=wrap;connectable=0;fillColor=none;top=0;left=0;bottom=0;right=0;overflow=hidden;pointerEvents=1;" vertex="1" parent="djCtfFWqk9Z2EtGRfytW-153">
          <mxGeometry width="60" height="40" as="geometry" />
        </mxCell>
        <mxCell id="djCtfFWqk9Z2EtGRfytW-155" value="2" style="shape=partialRectangle;html=1;whiteSpace=wrap;connectable=0;fillColor=none;top=0;left=0;bottom=0;right=0;overflow=hidden;pointerEvents=1;" vertex="1" parent="djCtfFWqk9Z2EtGRfytW-153">
          <mxGeometry x="60" width="60" height="40" as="geometry" />
        </mxCell>
        <mxCell id="djCtfFWqk9Z2EtGRfytW-156" value="inv_2" style="shape=partialRectangle;html=1;whiteSpace=wrap;connectable=0;fillColor=none;top=0;left=0;bottom=0;right=0;overflow=hidden;pointerEvents=1;" vertex="1" parent="djCtfFWqk9Z2EtGRfytW-153">
          <mxGeometry x="120" width="60" height="40" as="geometry" />
        </mxCell>
        <mxCell id="djCtfFWqk9Z2EtGRfytW-164" value="sku_2" style="shape=partialRectangle;html=1;whiteSpace=wrap;connectable=0;fillColor=none;top=0;left=0;bottom=0;right=0;overflow=hidden;pointerEvents=1;" vertex="1" parent="djCtfFWqk9Z2EtGRfytW-153">
          <mxGeometry x="180" width="60" height="40" as="geometry" />
        </mxCell>
      </root>
    </mxGraphModel>
  </diagram>
</mxfile>
